<mxfile host="app.diagrams.net" agent="Mozilla/5.0 (Windows NT 10.0; Win64; x64) AppleWebKit/537.36 (KHTML, like Gecko) Chrome/131.0.0.0 Safari/537.36" version="24.8.6">
  <diagram id="C5RBs43oDa-KdzZeNtuy" name="Page-1">
    <mxGraphModel dx="1120" dy="508" grid="1" gridSize="10" guides="1" tooltips="1" connect="1" arrows="1" fold="1" page="1" pageScale="1" pageWidth="827" pageHeight="1169" math="0" shadow="0">
      <root>
        <mxCell id="WIyWlLk6GJQsqaUBKTNV-0" />
        <mxCell id="WIyWlLk6GJQsqaUBKTNV-1" parent="WIyWlLk6GJQsqaUBKTNV-0" />
        <mxCell id="rlkPAVn1WEmwc_VopTMV-2" value="" style="edgeStyle=orthogonalEdgeStyle;rounded=0;orthogonalLoop=1;jettySize=auto;html=1;" edge="1" parent="WIyWlLk6GJQsqaUBKTNV-1" source="rlkPAVn1WEmwc_VopTMV-0" target="rlkPAVn1WEmwc_VopTMV-1">
          <mxGeometry relative="1" as="geometry" />
        </mxCell>
        <mxCell id="rlkPAVn1WEmwc_VopTMV-0" value="START" style="ellipse;whiteSpace=wrap;html=1;" vertex="1" parent="WIyWlLk6GJQsqaUBKTNV-1">
          <mxGeometry x="330" y="80" width="120" height="80" as="geometry" />
        </mxCell>
        <mxCell id="rlkPAVn1WEmwc_VopTMV-4" value="" style="edgeStyle=orthogonalEdgeStyle;rounded=0;orthogonalLoop=1;jettySize=auto;html=1;" edge="1" parent="WIyWlLk6GJQsqaUBKTNV-1" source="rlkPAVn1WEmwc_VopTMV-1" target="rlkPAVn1WEmwc_VopTMV-3">
          <mxGeometry relative="1" as="geometry" />
        </mxCell>
        <mxCell id="rlkPAVn1WEmwc_VopTMV-1" value="a,b,x" style="whiteSpace=wrap;html=1;" vertex="1" parent="WIyWlLk6GJQsqaUBKTNV-1">
          <mxGeometry x="330" y="220" width="120" height="60" as="geometry" />
        </mxCell>
        <mxCell id="rlkPAVn1WEmwc_VopTMV-6" value="" style="edgeStyle=orthogonalEdgeStyle;rounded=0;orthogonalLoop=1;jettySize=auto;html=1;" edge="1" parent="WIyWlLk6GJQsqaUBKTNV-1" source="rlkPAVn1WEmwc_VopTMV-3" target="rlkPAVn1WEmwc_VopTMV-5">
          <mxGeometry relative="1" as="geometry" />
        </mxCell>
        <mxCell id="rlkPAVn1WEmwc_VopTMV-3" value="a,b" style="shape=parallelogram;perimeter=parallelogramPerimeter;whiteSpace=wrap;html=1;fixedSize=1;" vertex="1" parent="WIyWlLk6GJQsqaUBKTNV-1">
          <mxGeometry x="330" y="360" width="120" height="60" as="geometry" />
        </mxCell>
        <mxCell id="rlkPAVn1WEmwc_VopTMV-8" value="" style="edgeStyle=orthogonalEdgeStyle;rounded=0;orthogonalLoop=1;jettySize=auto;html=1;" edge="1" parent="WIyWlLk6GJQsqaUBKTNV-1" source="rlkPAVn1WEmwc_VopTMV-5" target="rlkPAVn1WEmwc_VopTMV-7">
          <mxGeometry relative="1" as="geometry" />
        </mxCell>
        <mxCell id="rlkPAVn1WEmwc_VopTMV-17" value="" style="edgeStyle=orthogonalEdgeStyle;rounded=0;orthogonalLoop=1;jettySize=auto;html=1;" edge="1" parent="WIyWlLk6GJQsqaUBKTNV-1" source="rlkPAVn1WEmwc_VopTMV-5" target="rlkPAVn1WEmwc_VopTMV-16">
          <mxGeometry relative="1" as="geometry" />
        </mxCell>
        <mxCell id="rlkPAVn1WEmwc_VopTMV-5" value="a=0" style="rhombus;whiteSpace=wrap;html=1;" vertex="1" parent="WIyWlLk6GJQsqaUBKTNV-1">
          <mxGeometry x="350" y="490" width="80" height="80" as="geometry" />
        </mxCell>
        <mxCell id="rlkPAVn1WEmwc_VopTMV-11" value="" style="edgeStyle=orthogonalEdgeStyle;rounded=0;orthogonalLoop=1;jettySize=auto;html=1;" edge="1" parent="WIyWlLk6GJQsqaUBKTNV-1" source="rlkPAVn1WEmwc_VopTMV-7" target="rlkPAVn1WEmwc_VopTMV-10">
          <mxGeometry relative="1" as="geometry" />
        </mxCell>
        <mxCell id="rlkPAVn1WEmwc_VopTMV-14" value="" style="edgeStyle=orthogonalEdgeStyle;rounded=0;orthogonalLoop=1;jettySize=auto;html=1;" edge="1" parent="WIyWlLk6GJQsqaUBKTNV-1" source="rlkPAVn1WEmwc_VopTMV-7" target="rlkPAVn1WEmwc_VopTMV-13">
          <mxGeometry relative="1" as="geometry" />
        </mxCell>
        <mxCell id="rlkPAVn1WEmwc_VopTMV-7" value="b=0" style="rhombus;whiteSpace=wrap;html=1;" vertex="1" parent="WIyWlLk6GJQsqaUBKTNV-1">
          <mxGeometry x="500" y="590" width="80" height="80" as="geometry" />
        </mxCell>
        <mxCell id="rlkPAVn1WEmwc_VopTMV-9" value="true" style="text;html=1;align=center;verticalAlign=middle;resizable=0;points=[];autosize=1;strokeColor=none;fillColor=none;" vertex="1" parent="WIyWlLk6GJQsqaUBKTNV-1">
          <mxGeometry x="460" y="498" width="40" height="30" as="geometry" />
        </mxCell>
        <mxCell id="rlkPAVn1WEmwc_VopTMV-10" value="Phương trình có&lt;div&gt;vô số nghiệm&lt;/div&gt;" style="shape=parallelogram;perimeter=parallelogramPerimeter;whiteSpace=wrap;html=1;fixedSize=1;" vertex="1" parent="WIyWlLk6GJQsqaUBKTNV-1">
          <mxGeometry x="610" y="730" width="120" height="60" as="geometry" />
        </mxCell>
        <mxCell id="rlkPAVn1WEmwc_VopTMV-12" value="true" style="text;html=1;align=center;verticalAlign=middle;resizable=0;points=[];autosize=1;strokeColor=none;fillColor=none;" vertex="1" parent="WIyWlLk6GJQsqaUBKTNV-1">
          <mxGeometry x="600" y="598" width="40" height="30" as="geometry" />
        </mxCell>
        <mxCell id="rlkPAVn1WEmwc_VopTMV-24" style="edgeStyle=orthogonalEdgeStyle;rounded=0;orthogonalLoop=1;jettySize=auto;html=1;" edge="1" parent="WIyWlLk6GJQsqaUBKTNV-1" source="rlkPAVn1WEmwc_VopTMV-13" target="rlkPAVn1WEmwc_VopTMV-23">
          <mxGeometry relative="1" as="geometry" />
        </mxCell>
        <mxCell id="rlkPAVn1WEmwc_VopTMV-13" value="Phương trình&lt;div&gt;vô nghiệm&lt;/div&gt;" style="shape=parallelogram;perimeter=parallelogramPerimeter;whiteSpace=wrap;html=1;fixedSize=1;" vertex="1" parent="WIyWlLk6GJQsqaUBKTNV-1">
          <mxGeometry x="370" y="730" width="120" height="60" as="geometry" />
        </mxCell>
        <mxCell id="rlkPAVn1WEmwc_VopTMV-15" value="false" style="text;html=1;align=center;verticalAlign=middle;resizable=0;points=[];autosize=1;strokeColor=none;fillColor=none;" vertex="1" parent="WIyWlLk6GJQsqaUBKTNV-1">
          <mxGeometry x="445" y="608" width="50" height="30" as="geometry" />
        </mxCell>
        <mxCell id="rlkPAVn1WEmwc_VopTMV-20" value="" style="edgeStyle=orthogonalEdgeStyle;rounded=0;orthogonalLoop=1;jettySize=auto;html=1;" edge="1" parent="WIyWlLk6GJQsqaUBKTNV-1" source="rlkPAVn1WEmwc_VopTMV-16" target="rlkPAVn1WEmwc_VopTMV-19">
          <mxGeometry relative="1" as="geometry" />
        </mxCell>
        <mxCell id="rlkPAVn1WEmwc_VopTMV-16" value="x=-b/a" style="whiteSpace=wrap;html=1;" vertex="1" parent="WIyWlLk6GJQsqaUBKTNV-1">
          <mxGeometry x="90" y="600" width="120" height="60" as="geometry" />
        </mxCell>
        <mxCell id="rlkPAVn1WEmwc_VopTMV-18" value="false" style="text;html=1;align=center;verticalAlign=middle;resizable=0;points=[];autosize=1;strokeColor=none;fillColor=none;" vertex="1" parent="WIyWlLk6GJQsqaUBKTNV-1">
          <mxGeometry x="225" y="498" width="50" height="30" as="geometry" />
        </mxCell>
        <mxCell id="rlkPAVn1WEmwc_VopTMV-26" style="edgeStyle=orthogonalEdgeStyle;rounded=0;orthogonalLoop=1;jettySize=auto;html=1;entryX=0;entryY=0.5;entryDx=0;entryDy=0;" edge="1" parent="WIyWlLk6GJQsqaUBKTNV-1" source="rlkPAVn1WEmwc_VopTMV-19" target="rlkPAVn1WEmwc_VopTMV-23">
          <mxGeometry relative="1" as="geometry" />
        </mxCell>
        <mxCell id="rlkPAVn1WEmwc_VopTMV-19" value="x" style="shape=parallelogram;perimeter=parallelogramPerimeter;whiteSpace=wrap;html=1;fixedSize=1;" vertex="1" parent="WIyWlLk6GJQsqaUBKTNV-1">
          <mxGeometry x="90" y="730" width="120" height="60" as="geometry" />
        </mxCell>
        <mxCell id="rlkPAVn1WEmwc_VopTMV-23" value="END" style="ellipse;whiteSpace=wrap;html=1;" vertex="1" parent="WIyWlLk6GJQsqaUBKTNV-1">
          <mxGeometry x="370" y="920" width="120" height="80" as="geometry" />
        </mxCell>
        <mxCell id="rlkPAVn1WEmwc_VopTMV-25" style="edgeStyle=orthogonalEdgeStyle;rounded=0;orthogonalLoop=1;jettySize=auto;html=1;entryX=1;entryY=0.6;entryDx=0;entryDy=0;entryPerimeter=0;" edge="1" parent="WIyWlLk6GJQsqaUBKTNV-1" source="rlkPAVn1WEmwc_VopTMV-10" target="rlkPAVn1WEmwc_VopTMV-23">
          <mxGeometry relative="1" as="geometry" />
        </mxCell>
      </root>
    </mxGraphModel>
  </diagram>
</mxfile>
